<svg width="50" height="48" viewBox="0 0 50 48" fill="none" xmlns="http://www.w3.org/2000/svg">
<path d="M43.1173 28.4988V22.6263C43.1173 21.6819 42.343 20.9092 41.3966 20.9092H11.3354C10.5095 20.9092 9.85562 21.5101 9.68355 22.2828C7.63588 22.5576 5.39894 23.2959 3.81587 24.8242C2.50812 26.0776 1.81982 27.6917 1.81982 29.5119C1.81982 31.9501 3.11037 34.2167 5.36452 35.7278C6.91318 36.7752 8.73715 37.3247 10.4407 37.3247C10.9913 37.3247 11.5247 37.2388 12.0409 37.1186C14.1919 40.6559 17.5817 43.3174 21.6254 44.5194H11.0601C10.1137 44.5194 9.33941 45.2921 9.33941 46.2365C9.33941 47.1809 10.1137 47.9536 11.0601 47.9536H41.3966C42.343 47.9536 43.1173 47.1809 43.1173 46.2365C43.1173 45.2921 42.343 44.5194 41.3966 44.5194H31.1066C38.0411 42.476 43.1173 36.0712 43.1173 28.4988ZM7.27453 32.8774C6.53462 32.3794 5.26128 31.2633 5.26128 29.5119C5.26128 28.619 5.57101 27.9149 6.19047 27.2968C7.03363 26.4898 8.32418 26.009 9.61472 25.7686V28.4988C9.61472 30.3704 9.94166 32.1734 10.5267 33.8733C9.47706 33.8905 8.27255 33.5471 7.27453 32.8774ZM26.1853 12.0489C21.5222 7.39554 23.4494 4.03002 26.0477 0.716005C26.6327 -0.0395213 27.7168 -0.159719 28.4567 0.406926C29.2138 0.990742 29.3343 2.07252 28.7492 2.81087C26.4434 5.76429 25.9272 6.93193 28.6116 9.61061C30.5732 11.5509 30.8313 13.4569 30.6936 14.7104C30.6076 15.6033 29.8505 16.2558 28.9901 16.2558C28.9385 16.2558 28.8697 16.2558 28.818 16.2558C27.8716 16.17 27.1834 15.3286 27.2694 14.3842C27.3726 13.6115 27.0113 12.8559 26.1853 12.0489ZM17.3924 6.27943C17.7021 5.38653 18.683 4.90574 19.5777 5.21482C20.4725 5.5239 20.9543 6.50265 20.6446 7.39554C20.0767 9.07831 20.8167 10.0742 23.914 12.8388C24.998 13.8003 25.6863 14.9336 25.9788 16.2043C26.1853 17.1315 25.6175 18.0416 24.6883 18.2648C24.5506 18.2992 24.4302 18.3163 24.3097 18.3163C23.5182 18.3163 22.8127 17.784 22.6406 16.977C22.503 16.4103 22.176 15.8952 21.6254 15.3973C18.7346 12.8044 15.9986 10.3661 17.3924 6.27943Z" fill="white"/>
</svg>
