<svg width="44" height="44" viewBox="0 0 44 44" fill="none" xmlns="http://www.w3.org/2000/svg">
<g clip-path="url(#clip0_2151_467)">
<path d="M38.9167 0.25H5.08333C2.425 0.25 0.25 2.425 0.25 5.08333V38.9167C0.25 41.575 2.425 43.75 5.08333 43.75H38.9167C41.575 43.75 43.75 41.575 43.75 38.9167V5.08333C43.75 2.425 41.575 0.25 38.9167 0.25ZM13.5417 7.5C15.2092 7.5 16.5625 8.85333 16.5625 10.5208C16.5625 12.1883 15.2092 13.5417 13.5417 13.5417C11.8742 13.5417 10.5208 12.1883 10.5208 10.5208C10.5208 8.85333 11.8742 7.5 13.5417 7.5ZM19.5833 26.8333H17.1667V36.5H9.91667V26.8333H7.5V20.7917C7.5 18.1333 9.675 15.9583 12.3333 15.9583H14.75C17.4083 15.9583 19.5833 18.1333 19.5833 20.7917V26.8333ZM30.4583 34.0833L24.4167 24.4167H36.5L30.4583 34.0833ZM24.4167 19.5833L30.4583 9.91667L36.5 19.5833H24.4167Z" fill="white"/>
</g>
<defs>
<clipPath id="clip0_2151_467">
<rect width="44" height="44" fill="white"/>
</clipPath>
</defs>
</svg>
