<svg width="511" height="157" viewBox="0 0 511 157" fill="none" xmlns="http://www.w3.org/2000/svg">
<path d="M65.2332 6.17703C64.3449 5.01158 62.9545 4.23461 61.1006 3.92383H81.5318C80.489 4.07922 79.06 5.01158 77.2834 6.7209C75.5067 8.43022 73.6142 11.6158 71.6831 16.2776L40.9011 91.0604L9.61697 15.9279C7.84034 11.6158 6.06371 8.62446 4.32571 6.91514C2.5877 5.24467 1.15867 4.23461 0 3.92383H20.3154C18.1139 4.50655 17.0325 5.94394 17.0325 8.19713C17.0325 9.44028 17.3028 10.7223 17.8822 12.1208C18.4615 13.5193 18.7705 14.3352 18.8477 14.5682L42.446 72.724L65.3104 16.161C66.1215 14.2963 66.5077 12.3539 66.5077 10.4115C66.5077 8.77986 66.0443 7.38132 65.1559 6.17703H65.2332Z" fill="#F0E4AF"/>
<path d="M84.9305 87.564C85.8961 86.9424 86.7844 85.8158 87.5955 84.1453C88.4066 82.4749 88.8314 79.9886 88.8314 76.7253V15.3063C88.8314 12.043 88.4452 9.55672 87.6727 7.88624C86.9003 6.21577 86.012 5.08917 85.0464 4.50645C84.0808 3.92372 83.5788 3.72948 83.5788 3.88488H102.929C102.929 3.88488 102.426 3.92372 101.461 4.50645C100.495 5.08917 99.607 6.21577 98.796 7.88624C97.9849 9.55672 97.5601 12.043 97.5601 15.3063V76.7642C97.5601 80.0274 97.9849 82.5137 98.796 84.1842C99.607 85.8546 100.495 86.9812 101.461 87.564C102.426 88.1467 102.929 88.3409 102.929 88.1855H83.4629C83.4629 88.4186 83.965 88.2632 84.9305 87.6417V87.564Z" fill="#F0E4AF"/>
<path d="M165.033 87.0201C160.09 88.7295 155.107 89.5841 150.048 89.5841C142.516 89.5841 135.487 87.836 128.999 84.3396C122.51 80.8433 117.296 75.7542 113.356 69.15C109.417 62.5458 107.447 54.7761 107.447 45.8799C107.447 37.5663 109.263 30.1075 112.854 23.4644C116.446 16.8602 121.622 11.6934 128.303 7.96399C134.985 4.23456 142.787 2.40869 151.747 2.40869C161.248 2.40869 169.668 4.5065 177.045 8.66326V22.2601C174.534 17.7537 170.865 14.2186 166.076 11.538C161.287 8.89635 156.189 7.57551 150.743 7.57551C143.83 7.57551 137.882 9.20713 132.784 12.4704C127.724 15.7336 123.823 20.2012 121.158 25.873C118.493 31.5449 117.141 37.8771 117.141 44.9087C117.141 52.8337 118.648 59.7098 121.699 65.6148C124.75 71.4808 128.844 75.9872 134.058 79.134C139.233 82.2807 145.065 83.8346 151.477 83.8346C161.789 83.8346 170.286 80.8044 177.045 74.783V80.649C173.955 83.1742 169.938 85.3108 164.995 87.0201H165.033Z" fill="#F0E4AF"/>
<path d="M191.258 10.8774C188.902 12.276 187.203 14.0242 186.16 16.122L187.86 3.88477H245.523L247.222 16.122C246.179 13.9853 244.48 12.2371 242.124 10.8774C239.768 9.47891 236.794 8.77964 233.241 8.77964H221.075V76.7252C221.075 79.9885 221.5 82.4748 222.311 84.1841C223.122 85.8934 224.01 87.0588 224.976 87.6027C225.941 88.1854 226.443 88.3408 226.443 88.1077H207.093C207.093 88.3408 207.596 88.1854 208.561 87.6027C209.527 87.02 210.415 85.8934 211.187 84.2229C211.96 82.5524 212.346 80.0273 212.346 76.6864V8.81849H200.18C196.627 8.81849 193.653 9.51776 191.297 10.9163L191.258 10.8774Z" fill="#F0E4AF"/>
<path d="M249.345 23.8526C253.053 17.093 258.228 11.8097 264.91 8.08026C271.592 4.31198 279.316 2.44727 288.083 2.44727C295.383 2.44727 302.219 4.04004 308.592 7.26445C314.965 10.4888 320.063 15.306 323.925 21.7548C327.787 28.2036 329.718 35.9344 329.718 45.0249C329.718 54.1154 327.865 61.38 324.195 68.1396C320.488 74.8992 315.312 80.1826 308.631 83.912C301.949 87.6803 294.224 89.545 285.457 89.545C278.158 89.545 271.321 87.9522 264.949 84.7278C258.576 81.5034 253.478 76.6862 249.616 70.2374C245.753 63.7886 243.822 56.0578 243.822 46.9673C243.822 37.8769 245.676 30.6122 249.345 23.8138V23.8526ZM315.428 26.7274C312.377 20.7448 308.206 16.0441 302.876 12.6644C297.546 9.28456 291.559 7.57523 284.916 7.57523C278.814 7.57523 273.407 9.12916 268.656 12.237C263.906 15.3449 260.198 19.7347 257.533 25.4066C254.868 31.0784 253.516 37.6826 253.516 45.1803C253.516 52.678 255.023 59.3211 258.074 65.3037C261.125 71.2863 265.296 75.987 270.626 79.3668C275.956 82.7466 281.904 84.4559 288.586 84.4559C294.688 84.4559 300.095 82.902 304.846 79.7941C309.596 76.6862 313.304 72.2964 315.969 66.6245C318.634 60.9527 319.986 54.3485 319.986 46.8508C319.986 39.3531 318.479 32.71 315.428 26.7274Z" fill="#F0E4AF"/>
<path d="M368.342 43.1605C371.085 41.4123 373.17 39.1203 374.599 36.3232C376.028 33.5262 376.724 30.5348 376.724 27.4658C376.724 24.3968 376.067 21.289 374.715 18.453C373.363 15.656 371.316 13.3251 368.574 11.538C365.832 9.75103 362.433 8.85752 358.455 8.85752H348.104V76.9196C348.104 80.1829 348.529 82.6692 349.34 84.3396C350.151 86.0101 351.04 87.0979 352.005 87.6417C352.971 88.1856 353.473 88.341 353.473 88.1856H334.123C334.123 88.1856 334.625 88.1468 335.591 87.564C336.556 86.9813 337.445 85.8936 338.217 84.2619C338.989 82.6303 339.376 80.1829 339.376 76.9196V15.656C339.376 12.315 338.989 9.75103 338.217 8.00286C337.445 6.25469 336.556 5.05039 335.591 4.46767C334.625 3.88495 334.123 3.69071 334.123 3.92379H358.223C364.557 3.92379 369.772 4.9727 373.865 7.03165C377.959 9.12946 380.933 11.81 382.749 15.1121C384.564 18.4142 385.491 22.0271 385.491 25.9507C385.491 29.214 384.718 32.4384 383.173 35.5463C381.629 38.693 379.427 41.4123 376.53 43.7432C373.634 46.0741 370.312 47.6669 366.489 48.5604L364.557 48.9101L385.993 76.3369C388.851 79.5225 391.168 81.9699 393.061 83.6792C394.915 85.3885 396.305 86.554 397.155 87.0979C398.004 87.6806 398.507 87.9914 398.661 88.0691H384.409L351.31 45.7245H358.61C362.356 45.7245 365.6 44.831 368.342 43.0828V43.1605Z" fill="#F0E4AF"/>
<path d="M406.577 87.564C407.543 86.9424 408.431 85.8158 409.242 84.1453C410.053 82.4749 410.478 79.9886 410.478 76.7253V15.3063C410.478 12.043 410.092 9.55672 409.319 7.88624C408.547 6.21577 407.658 5.08917 406.693 4.50645C405.727 3.92372 405.225 3.72948 405.225 3.88488H424.575C424.575 3.88488 424.073 3.92372 423.107 4.50645C422.142 5.08917 421.254 6.21577 420.442 7.88624C419.631 9.55672 419.207 12.043 419.207 15.3063V76.7642C419.207 80.0274 419.631 82.5137 420.442 84.1842C421.254 85.8546 422.142 86.9812 423.107 87.564C424.073 88.1467 424.575 88.3409 424.575 88.1855H405.109C405.109 88.4186 405.611 88.2632 406.577 87.6417V87.564Z" fill="#F0E4AF"/>
<path d="M452.886 55.4364L445.084 74.8994C443.848 77.9296 443.269 80.4159 443.269 82.3583C443.269 85.0388 444.466 86.9812 446.938 88.1078H429.52C430.331 88.1078 431.489 87.292 433.034 85.6604C434.579 84.0287 436.356 80.8043 438.403 75.9872L470.15 0L501.666 76.3756C503.443 80.7655 505.181 83.7956 506.841 85.4273C508.502 87.0589 509.815 87.9524 510.781 88.1078H490.581C492.59 87.1366 493.633 85.6215 493.633 83.5626C493.633 81.8532 492.976 79.4058 491.702 76.2202L483.166 55.3976H452.847L452.886 55.4364ZM481.235 50.425L467.987 17.7536L454.972 50.425H481.274H481.235Z" fill="#F0E4AF"/>
<path d="M30.5649 126.597C29.1657 128.902 27.1876 130.722 24.6305 132.033C22.0492 133.343 19.0337 134.022 15.5358 134.022C13.4129 134.022 11.1452 133.804 8.70871 133.343V149.94C8.70871 151.93 8.94994 153.434 9.45654 154.478C9.96314 155.521 10.518 156.225 11.1211 156.564C11.7242 156.928 12.0378 157.05 12.0378 156.953H0C0 156.953 0.313622 156.928 0.916718 156.564C1.51981 156.2 2.07466 155.521 2.53301 154.502C3.01549 153.483 3.25673 151.954 3.25673 149.94V111.796C3.25673 109.757 3.01549 108.229 2.53301 107.161C2.05053 106.093 1.51981 105.365 0.916718 105.001C0.313622 104.637 0 104.492 0 104.589H14.8361C17.4174 104.589 19.5403 104.759 21.2048 105.074C22.8694 105.39 24.341 105.899 25.5954 106.554C27.863 107.719 29.5999 109.418 30.8303 111.626C32.0365 113.834 32.6396 116.212 32.6396 118.76C32.6396 121.696 31.94 124.341 30.5649 126.646V126.597ZM23.4966 110.946C21.2772 108.714 18.31 107.598 14.6432 107.598H8.73282V130.382C10.904 130.795 13.1716 130.989 15.5599 130.989C19.082 130.989 21.8562 129.97 23.8585 127.907C25.8608 125.845 26.8498 123.127 26.8498 119.73C26.8498 116.115 25.7401 113.203 23.5207 110.971L23.4966 110.946Z" fill="#F0E4AF"/>
<path d="M74.905 138.196C74.905 142.151 74.1572 145.524 72.6615 148.338C71.1658 151.153 69.067 153.313 66.3652 154.793C63.6633 156.273 60.5272 157.001 56.9328 157.001C51.0224 157.001 46.463 155.351 43.2304 152.051C39.9978 148.751 38.3815 144.189 38.3815 138.341V111.529C38.3815 109.539 38.1403 108.01 37.6819 106.991C37.1994 105.972 36.6929 105.292 36.1139 104.929C35.5349 104.565 35.2695 104.443 35.2695 104.565H46.8972C46.8972 104.565 46.6077 104.589 46.0529 104.929C45.4739 105.268 44.9673 105.948 44.4849 106.943C44.0024 107.937 43.7852 109.393 43.7852 111.286V138.317C43.7852 143.17 44.9432 146.907 47.2591 149.552C49.575 152.197 52.9523 153.531 57.4152 153.531C61.5404 153.531 64.7971 152.269 67.1613 149.746C69.5495 147.222 70.7316 143.485 70.7316 138.56V111.529C70.7316 109.539 70.4903 108.01 69.9837 106.991C69.4771 105.972 68.9464 105.292 68.3433 104.929C67.7402 104.565 67.4508 104.443 67.4508 104.565H78.1859C78.1859 104.565 77.8964 104.589 77.2933 104.929C76.6902 105.268 76.1595 105.972 75.6529 106.991C75.1463 108.01 74.905 109.539 74.905 111.529V138.196Z" fill="#F0E4AF"/>
<path d="M101.851 156.686C100.162 156.88 97.8222 157.001 94.8308 157.001H82.3105C82.9619 156.856 83.6856 156.273 84.4335 155.278C85.1813 154.283 85.5673 152.367 85.5673 149.528V111.771C85.5673 109.126 85.2054 107.307 84.5058 106.312C83.8062 105.317 83.0825 104.734 82.3829 104.516H94.8067C98.0393 104.516 100.5 104.662 102.213 104.929C103.901 105.22 105.373 105.632 106.652 106.19C108.871 107.258 110.584 108.762 111.814 110.679C113.044 112.596 113.623 114.683 113.623 116.94C113.623 120.337 112.61 123.273 110.56 125.748C108.509 128.223 105.831 129.8 102.478 130.528C104.746 130.795 106.917 131.45 108.967 132.518C111.018 133.585 112.682 135.041 113.961 136.861C115.24 138.681 115.891 140.768 115.891 143.122C115.891 146.373 115.022 149.042 113.31 151.08C111.597 153.143 109.257 154.672 106.338 155.691C105.011 156.152 103.515 156.467 101.827 156.686H101.851ZM100.982 108.156C99.8245 107.768 98.2564 107.573 96.2783 107.573H91.0434V129.242H97.195C99.0042 129.242 100.524 128.975 101.754 128.393C102.961 127.835 104.022 127.107 104.939 126.185C105.904 125.214 106.652 124.049 107.206 122.666C107.761 121.283 108.051 119.9 108.051 118.468C108.051 116.746 107.737 115.12 107.11 113.591C106.483 112.063 105.518 110.825 104.263 109.854C103.25 109.102 102.164 108.52 101.007 108.132L100.982 108.156ZM102.285 132.809C100.862 132.445 98.956 132.275 96.5195 132.275H91.0675V153.944H98.2806C101.923 153.944 104.77 153.07 106.82 151.347C108.871 149.625 109.884 146.883 109.884 143.122C109.884 139.603 108.557 136.74 105.855 134.508C104.89 133.755 103.708 133.197 102.285 132.833V132.809Z" fill="#F0E4AF"/>
<path d="M123.683 107.816C123.2 106.797 122.67 106.118 122.091 105.754C121.512 105.39 121.198 105.268 121.198 105.39H133.043C133.043 105.39 132.753 105.414 132.15 105.754C131.547 106.093 131.016 106.797 130.51 107.816C130.003 108.835 129.762 110.364 129.762 112.354V153.944H141.969C144.212 153.944 146.118 153.483 147.734 152.561C149.35 151.639 150.508 150.45 151.208 148.994L149.857 156.928H121.174C121.174 157.074 121.463 156.977 122.066 156.589C122.67 156.225 123.2 155.473 123.659 154.332C124.141 153.216 124.358 151.566 124.358 149.431V112.354C124.358 110.364 124.117 108.835 123.659 107.816H123.683Z" fill="#F0E4AF"/>
<path d="M156.37 156.589C156.973 156.225 157.504 155.521 158.011 154.502C158.517 153.483 158.759 151.978 158.759 149.964V112.354C158.759 110.364 158.517 108.835 158.059 107.816C157.577 106.797 157.046 106.118 156.467 105.754C155.888 105.39 155.574 105.268 155.574 105.39H167.419C167.419 105.39 167.13 105.414 166.527 105.754C165.923 106.093 165.393 106.797 164.886 107.816C164.38 108.835 164.138 110.364 164.138 112.354V149.964C164.138 151.954 164.38 153.483 164.886 154.502C165.393 155.521 165.923 156.225 166.527 156.564C167.13 156.904 167.419 157.025 167.419 156.928H155.502C155.502 157.074 155.791 156.977 156.395 156.589H156.37Z" fill="#F0E4AF"/>
<path d="M205.776 155.448C202.809 156.467 199.818 156.977 196.802 156.977C192.291 156.977 188.07 155.934 184.186 153.822C180.302 151.711 177.166 148.678 174.826 144.723C172.461 140.768 171.279 136.109 171.279 130.795C171.279 125.796 172.365 121.332 174.536 117.377C176.707 113.421 179.795 110.315 183.8 108.107C187.804 105.875 192.484 104.759 197.84 104.759C203.533 104.759 208.575 105.996 213.014 108.496V116.649C211.518 113.955 209.323 111.82 206.452 110.218C203.581 108.617 200.517 107.84 197.261 107.84C193.136 107.84 189.541 108.811 186.501 110.776C183.462 112.742 181.146 115.411 179.53 118.808C177.913 122.205 177.117 126.015 177.117 130.213C177.117 134.944 178.034 139.094 179.843 142.612C181.677 146.13 184.137 148.824 187.249 150.717C190.361 152.609 193.835 153.531 197.671 153.531C203.846 153.531 208.961 151.711 212.989 148.096V151.614C211.132 153.143 208.744 154.405 205.776 155.424V155.448Z" fill="#F0E4AF"/>
<path d="M274.142 156.588C274.746 156.224 275.276 155.521 275.783 154.502C276.289 153.483 276.531 151.978 276.531 149.964V132.954H248.523V149.964C248.523 151.954 248.764 153.483 249.271 154.502C249.777 155.521 250.308 156.224 250.911 156.564C251.514 156.904 251.804 157.025 251.804 156.928H239.959C239.959 157.074 240.248 156.977 240.852 156.588C241.455 156.224 241.985 155.521 242.444 154.502C242.926 153.483 243.143 151.978 243.143 149.964V112.353C243.143 110.364 242.902 108.835 242.444 107.816C241.961 106.797 241.431 106.117 240.852 105.753C240.273 105.389 239.959 105.268 239.959 105.389H251.804C251.804 105.389 251.514 105.414 250.911 105.753C250.308 106.093 249.777 106.797 249.271 107.816C248.764 108.835 248.523 110.364 248.523 112.353V129.654H276.531V112.353C276.531 110.364 276.289 108.835 275.783 107.816C275.276 106.797 274.746 106.117 274.142 105.753C273.539 105.389 273.25 105.268 273.25 105.389H285.095C285.095 105.244 284.805 105.341 284.202 105.729C283.599 106.093 283.068 106.797 282.61 107.816C282.127 108.835 281.91 110.364 281.91 112.353V149.964C281.91 151.954 282.152 153.483 282.658 154.502C283.165 155.521 283.695 156.224 284.299 156.564C284.902 156.904 285.191 157.025 285.191 156.928H273.274C273.274 157.074 273.563 156.977 274.167 156.588H274.142Z" fill="#F0E4AF"/>
<path d="M302.417 136.982L297.64 148.896C296.892 150.741 296.531 152.269 296.531 153.458C296.531 155.108 297.278 156.273 298.774 156.977H288.111C288.618 156.977 289.318 156.467 290.282 155.472C291.223 154.477 292.309 152.512 293.563 149.552L312.983 103.06L332.282 149.794C333.368 152.488 334.429 154.332 335.442 155.327C336.455 156.322 337.276 156.88 337.855 156.977H325.503C326.734 156.37 327.361 155.448 327.361 154.211C327.361 153.167 326.951 151.663 326.179 149.721L320.968 136.982H302.417ZM319.762 133.925L311.632 113.931L303.671 133.925H319.762Z" fill="#F0E4AF"/>
<path d="M344.175 107.816C343.692 106.797 343.162 106.118 342.583 105.754C342.004 105.39 341.69 105.268 341.69 105.39H353.535C353.535 105.39 353.246 105.414 352.642 105.754C352.039 106.093 351.509 106.797 351.002 107.816C350.495 108.835 350.254 110.364 350.254 112.354V153.944H362.461C364.704 153.944 366.61 153.483 368.226 152.561C369.843 151.639 371.001 150.45 371.7 148.994L370.349 156.928H341.666C341.666 157.074 341.955 156.977 342.559 156.589C343.162 156.225 343.692 155.473 344.151 154.332C344.633 153.216 344.85 151.566 344.85 149.431V112.354C344.85 110.364 344.609 108.835 344.151 107.816H344.175Z" fill="#F0E4AF"/>
<path d="M377.997 107.816C377.515 106.797 376.984 106.118 376.405 105.754C375.826 105.39 375.512 105.268 375.512 105.39H387.357C387.357 105.39 387.068 105.414 386.465 105.754C385.862 106.093 385.331 106.797 384.824 107.816C384.318 108.835 384.076 110.364 384.076 112.354V153.944H396.283C398.527 153.944 400.432 153.483 402.049 152.561C403.665 151.639 404.823 150.45 405.522 148.994L404.171 156.928H375.488C375.488 157.074 375.778 156.977 376.381 156.589C376.984 156.225 377.515 155.473 377.973 154.332C378.456 153.216 378.673 151.566 378.673 149.431V112.354C378.673 110.364 378.431 108.835 377.973 107.816H377.997Z" fill="#F0E4AF"/>
</svg>
