<svg width="52" height="52" viewBox="0 0 52 52" fill="none" xmlns="http://www.w3.org/2000/svg">
<path d="M7.70351 3.85181H15.4072C16.4285 3.85283 17.4076 4.25897 18.1298 4.98111C18.8519 5.70326 19.258 6.6824 19.2591 7.70366V21.1851H46.222C46.7328 21.1851 47.2227 21.3881 47.5839 21.7492C47.945 22.1104 48.1479 22.6003 48.1479 23.1111C48.143 26.8626 46.7716 30.4838 44.2904 33.2975C41.8091 36.1113 38.3879 37.9248 34.6665 38.3991V46.2222C34.6665 46.733 34.4636 47.2228 34.1024 47.584C33.7412 47.9452 33.2513 48.1481 32.7405 48.1481H19.2591C18.7483 48.1481 18.2584 47.9452 17.8972 47.584C17.536 47.2228 17.3331 46.733 17.3331 46.2222V38.3991C13.6117 37.9248 10.1905 36.1113 7.70923 33.2975C5.22798 30.4838 3.85663 26.8626 3.85165 23.1111V7.70366C3.85267 6.6824 4.25882 5.70326 4.98096 4.98111C5.7031 4.25897 6.68224 3.85283 7.70351 3.85181Z" fill="white"/>
<path d="M46.222 19.2592H23.1109C22.6001 19.2592 22.1103 19.0563 21.7491 18.6951C21.3879 18.3339 21.185 17.8441 21.185 17.3333C21.185 16.8225 21.3879 16.3326 21.7491 15.9714C22.1103 15.6103 22.6001 15.4073 23.1109 15.4073H46.222C46.7328 15.4073 47.2227 15.6103 47.5839 15.9714C47.945 16.3326 48.1479 16.8225 48.1479 17.3333C48.1479 17.8441 47.945 18.3339 47.5839 18.6951C47.2227 19.0563 46.7328 19.2592 46.222 19.2592Z" fill="white"/>
</svg>
