<svg width="52" height="52" viewBox="0 0 52 52" fill="none" xmlns="http://www.w3.org/2000/svg">
<path d="M1.84427 14.75H12.9068C12.9212 14.7509 12.9356 14.7518 12.9428 14.75C13.9619 14.75 14.7865 13.9244 14.7865 12.9062C14.7865 12.4849 14.6461 12.096 14.4084 11.7854L9.02482 1.01909C8.39823 -0.230484 6.35282 -0.230484 5.72623 1.01909L0.194982 12.0816C-0.0913035 12.6533 -0.0606943 13.3321 0.276006 13.8758C0.612707 14.4187 1.20508 14.75 1.84427 14.75Z" fill="white"/>
<path d="M12.9067 35.0312H3.68799C2.66888 35.0312 1.84424 35.8568 1.84424 36.875V46.0938C1.84424 47.112 2.66888 47.9375 3.68799 47.9375H12.9067C13.9258 47.9375 14.7505 47.112 14.7505 46.0938V36.875C14.7505 35.8568 13.9258 35.0312 12.9067 35.0312Z" fill="white"/>
<path d="M33.188 18.4375C33.188 14.371 29.8804 11.0625 25.813 11.0625C21.7456 11.0625 18.438 14.371 18.438 18.4375C18.438 22.504 21.7456 25.8125 25.813 25.8125C29.8804 25.8125 33.188 22.504 33.188 18.4375Z" fill="white"/>
<path d="M29.5005 25.8125H25.813H22.1255C18.0581 25.8125 14.7505 29.121 14.7505 33.1875V35.0312C14.7505 36.0495 15.5751 36.875 16.5942 36.875H25.813H35.0317C36.0508 36.875 36.8755 36.0495 36.8755 35.0312V33.1875C36.8755 29.121 33.5679 25.8125 29.5005 25.8125Z" fill="white"/>
<path d="M5.70189 16.594L1.84424 16.5937C1.79967 16.5937 1.7586 16.5787 1.71437 16.5771C0.590277 19.5035 0.000488281 22.6262 0.000488281 25.8124C0.000488281 28.6223 0.477743 31.3744 1.37092 34.0301C2.00629 33.5115 2.80606 33.1874 3.68799 33.1874H4.98257C4.14004 30.8089 3.68799 28.3376 3.68799 25.8124C3.68799 22.6016 4.38007 19.4654 5.70189 16.594Z" fill="white"/>
<path d="M39.517 9.52754L39.02 12.6128C38.9084 13.3087 39.2019 14.0082 39.7799 14.4142C40.0968 14.6375 40.4677 14.75 40.8404 14.75C41.1465 14.75 41.4526 14.6744 41.7298 14.5204L44.2416 13.1358L46.775 14.5231C47.0522 14.6753 47.3565 14.75 47.6608 14.75C47.6734 14.7509 47.6878 14.7518 47.6968 14.75C48.7159 14.75 49.5406 13.9245 49.5406 12.9062C49.5406 12.6776 49.4992 12.4588 49.4235 12.2563L48.9842 9.52754L51.1034 7.35249C51.586 6.85735 51.7498 6.13263 51.5284 5.47723C51.3087 4.82184 50.7397 4.3447 50.0555 4.24297L47.2143 3.81714L45.9197 1.06052C45.6154 0.413223 44.9654 0 44.2506 0C43.5358 0 42.8858 0.413223 42.5815 1.06052L41.2905 3.81174L39.0975 4.13853C39.056 4.14304 39.0128 4.14844 38.9696 4.15564L38.4169 4.24747C37.7399 4.36 37.1817 4.83894 36.9674 5.49164C36.7532 6.14343 36.9188 6.86095 37.3978 7.35249L39.517 9.52754Z" fill="white"/>
<path d="M35.2154 4.91547C35.5521 3.89209 36.3119 3.10041 37.2739 2.69C33.7249 0.928965 29.8238 0 25.813 0C21.0823 0 16.4659 1.32159 12.4536 3.75389L14.1115 7.06857C17.6099 4.88283 21.6594 3.6875 25.813 3.6875C29.0387 3.6875 32.1803 4.38982 35.068 5.72143C35.0939 5.45135 35.1283 5.18048 35.2154 4.91547Z" fill="white"/>
<path d="M48.5682 34.5955C47.3132 33.6745 45.8206 33.1875 44.2505 33.1875C40.1831 33.1875 36.8755 36.496 36.8755 40.5625C36.8755 42.7051 37.7902 44.7145 39.344 46.0406C40.6944 47.2641 42.4373 47.9375 44.2505 47.9375C48.3179 47.9375 51.6255 44.629 51.6255 40.5625C51.6255 38.1867 50.4731 35.9504 48.5682 34.5955Z" fill="white"/>
<path d="M38.1054 47.4072C37.3973 46.8028 36.7993 46.0821 36.3216 45.2826C33.1203 47.0269 29.5473 47.9375 25.8131 47.9375C22.6016 47.9375 19.4654 47.246 16.5944 45.9241V46.0937C16.5944 47.3959 15.912 48.5359 14.8904 49.1922C18.2873 50.7862 22.0045 51.625 25.8131 51.625C30.5057 51.625 34.9723 50.375 38.9228 48.0211C38.6466 47.8219 38.3606 47.6383 38.1054 47.4072Z" fill="white"/>
<path d="M47.0868 31.7899C48.0021 32.0868 48.8683 32.5287 49.6593 33.1092C49.9111 33.2883 50.1464 33.4861 50.3764 33.6888C51.1904 31.1527 51.6255 28.5193 51.6255 25.8125C51.6255 22.3894 50.9567 19.0768 49.6826 15.9965C49.1638 16.3311 48.5636 16.5501 47.911 16.5875L47.6823 16.5947C47.6823 16.5947 47.5149 16.5893 47.5077 16.5893C47.0251 16.5893 46.422 16.4326 45.8872 16.1392L45.6279 15.9971C47.1391 19.0211 47.938 22.3499 47.938 25.8125C47.938 27.8602 47.6307 29.8542 47.0868 31.7899Z" fill="white"/>
</svg>
